# xmcd CD database file
#
# Track frame offsets:
#	150
#	14190
#	28494
#	43756
#	61168
#	88764
#	107586
#	119310
#	133680
#	155422
#	168203
#
# Disc length: 2435 seconds
#
# Revision: 0
# Processed by: cddbd v1.5.2PL0 Copyright (c) Steve Scherf et al.
# Submitted via: CDex 1.51
#
DISCID=9409810b
DTITLE=Adele - Adele and her Blues band
DYEAR=2005
DGENRE=Blues
TTITLE0=All right, OK, you win
TTITLE1=Just a little bit
TTITLE2=Never trust a man
TTITLE3=On my feet again
TTITLE4=Louisianan womn
TTITLE5=Baby workout
TTITLE6=Good rockin' daddy
TTITLE7=Hallelujah, I love her so
TTITLE8=Cry me a river
TTITLE9=Can't get enough
TTITLE10=Route 66
EXTD=YEAR: 2005
EXTT0=
EXTT1=
EXTT2=
EXTT3=
EXTT4=
EXTT5=
EXTT6=
EXTT7=
EXTT8=
EXTT9=
EXTT10=
PLAYORDER=
